<svg width="24" height="24" viewBox="0 0 24 24" fill="none" xmlns="http://www.w3.org/2000/svg">
<g opacity="0.6">
<path d="M11.9999 14.3152C9.91189 14.3152 8.21289 12.6172 8.21289 10.5292C8.21289 8.44123 9.91289 6.74023 11.9999 6.74023C14.0869 6.74023 15.7869 8.44024 15.7869 10.5272C15.7869 12.6142 14.0869 14.3122 11.9999 14.3122V14.3152ZM11.9999 8.24223C10.7399 8.24223 9.71289 9.26823 9.71289 10.5292C9.71289 11.7902 10.7399 12.8142 11.9999 12.8142C13.2599 12.8142 14.2869 11.7892 14.2869 10.5282C14.2869 9.26723 13.2599 8.24023 11.9999 8.24023V8.24223Z" fill="black"/>
<path d="M20.6921 10.69C20.6921 5.9 16.7921 2 12.0001 2C7.20811 2 3.30811 5.9 3.30811 10.69C3.30811 12.592 3.91111 14.398 5.05111 15.913L5.05411 15.911L5.06111 15.926C6.68911 17.996 11.3391 21.683 11.5361 21.838C11.6741 21.948 11.8381 22.001 12.0011 22.001C12.1641 22.001 12.3281 21.948 12.4661 21.839C12.6631 21.684 17.3131 17.999 18.9411 15.927L18.9481 15.913L18.9501 15.915C20.0901 14.399 20.6921 12.595 20.6921 10.692V10.69ZM12.0001 20.29C10.7761 19.3 7.48011 16.575 6.24411 15.005C5.30411 13.755 4.80811 12.263 4.80811 10.693C4.80811 6.727 8.0351 3.5 12.0001 3.5C15.9651 3.5 19.1921 6.726 19.1921 10.69C19.1921 12.26 18.6951 13.752 17.7561 15.003C16.5201 16.573 13.2241 19.297 12.0001 20.288V20.29Z" fill="black"/>
</g>
</svg>
