<svg width="26" height="26" viewBox="0 0 26 26" fill="none" xmlns="http://www.w3.org/2000/svg">
<path d="M24.3762 13.2528C24.3762 12.3175 24.2987 11.635 24.1311 10.9272H13.2333V15.1486H19.6301C19.5012 16.1976 18.8047 17.7775 17.2571 18.8391L17.2354 18.9804L20.6811 21.5964L20.9198 21.6197C23.1122 19.6354 24.3762 16.7158 24.3762 13.2528" fill="#1C5DF6"/>
<path d="M13.2326 24.3749C16.3664 24.3749 18.9973 23.3637 20.919 21.6196L17.2563 18.8389C16.2762 19.5088 14.9607 19.9764 13.2326 19.9764C10.1631 19.9764 7.55802 17.9922 6.62936 15.2495L6.49324 15.2608L2.91038 17.9782L2.86353 18.1059C4.77223 21.8217 8.69286 24.3749 13.2326 24.3749Z" fill="#34A853"/>
<path d="M6.63004 15.2496C6.38501 14.5418 6.2432 13.7834 6.2432 12.9999C6.2432 12.2162 6.38501 11.4579 6.61715 10.7501L6.61066 10.5994L2.98289 7.83838L2.86419 7.89371C2.07752 9.43567 1.62613 11.1672 1.62613 12.9999C1.62613 14.8325 2.07752 16.564 2.86419 18.1059L6.63004 15.2496" fill="#FBBC05"/>
<path d="M13.2326 6.0233C15.4122 6.0233 16.8824 6.94594 17.7207 7.71696L20.9965 4.5825C18.9846 2.74987 16.3665 1.625 13.2326 1.625C8.69289 1.625 4.77224 4.17804 2.86353 7.89384L6.61649 10.7503C7.55805 8.00763 10.1632 6.0233 13.2326 6.0233" fill="#EB4335"/>
</svg>
