<svg width="17" height="28" viewBox="0 0 17 28" fill="none" xmlns="http://www.w3.org/2000/svg">
<path d="M13.5403 1.2002H3.36634C2.11769 1.2002 1.10547 2.21242 1.10547 3.46106V24.9393C1.10547 26.188 2.11769 27.2002 3.36634 27.2002H13.5403C14.7889 27.2002 15.8011 26.188 15.8011 24.9393V3.46106C15.8011 2.21242 14.7889 1.2002 13.5403 1.2002Z" stroke="#A0A3BD" stroke-width="1.6" stroke-linecap="round" stroke-linejoin="round"/>
<path d="M12.1564 1.2002V2.68142C12.1564 3.07427 12.0004 3.45103 11.7226 3.72881C11.4448 4.0066 11.068 4.16265 10.6752 4.16265H6.2315C5.83865 4.16265 5.46189 4.0066 5.18411 3.72881C4.90632 3.45103 4.75027 3.07427 4.75027 2.68142V1.2002" stroke="#A0A3BD" stroke-width="1.6" stroke-linecap="round" stroke-linejoin="round"/>
</svg>
