<svg width="54" height="54" viewBox="0 0 54 54" fill="none" xmlns="http://www.w3.org/2000/svg">
<rect width="54" height="54" rx="27" fill="url(#paint0_linear_879_13185)"/>
<path d="M26.9998 40.3332C34.3636 40.3332 40.3332 34.3636 40.3332 26.9998C40.3332 19.636 34.3636 13.6665 26.9998 13.6665C19.636 13.6665 13.6665 19.636 13.6665 26.9998C13.6665 34.3636 19.636 40.3332 26.9998 40.3332Z" stroke="white" stroke-width="2" stroke-linecap="round" stroke-linejoin="round"/>
<path d="M13.6665 27H40.3332" stroke="white" stroke-width="2" stroke-linecap="round" stroke-linejoin="round"/>
<path d="M26.9998 13.6665C30.3349 17.3176 32.2302 22.0559 32.3332 26.9998C32.2302 31.9438 30.3349 36.682 26.9998 40.3332C23.6648 36.682 21.7695 31.9438 21.6665 26.9998C21.7695 22.0559 23.6648 17.3176 26.9998 13.6665V13.6665Z" stroke="white" stroke-width="2" stroke-linecap="round" stroke-linejoin="round"/>
<defs>
<linearGradient id="paint0_linear_879_13185" x1="47" y1="3.53765e-07" x2="8.5" y2="54" gradientUnits="userSpaceOnUse">
<stop stop-color="#FFB75E"/>
<stop offset="1" stop-color="#ED8F03"/>
</linearGradient>
</defs>
</svg>
