<svg width="17" height="31" viewBox="0 0 17 31" fill="none" xmlns="http://www.w3.org/2000/svg">
<path d="M15.6959 30.2001V6.55577C15.6958 6.30238 15.616 6.05544 15.4679 5.84986C15.3198 5.64427 15.1108 5.49046 14.8704 5.41016L2.80293 1.38766C2.62148 1.32685 2.42816 1.31012 2.23896 1.33887C2.04976 1.36761 1.87013 1.441 1.71493 1.55296C1.55973 1.66492 1.43342 1.81223 1.34646 1.9827C1.2595 2.15317 1.21438 2.3419 1.21485 2.53327V30.2001" stroke="#A0A3BD" stroke-width="1.6" stroke-linecap="round" stroke-linejoin="round"/>
<path d="M10.8672 22.5801V23.7868" stroke="#A0A3BD" stroke-width="1.6" stroke-linecap="round" stroke-linejoin="round"/>
<path d="M10.8672 16.5459V17.7526" stroke="#A0A3BD" stroke-width="1.6" stroke-linecap="round" stroke-linejoin="round"/>
<path d="M10.8672 10.5127V11.7194" stroke="#A0A3BD" stroke-width="1.6" stroke-linecap="round" stroke-linejoin="round"/>
<path d="M6.04297 22.5801V23.7868" stroke="#A0A3BD" stroke-width="1.6" stroke-linecap="round" stroke-linejoin="round"/>
<path d="M6.04297 16.5459V17.7526" stroke="#A0A3BD" stroke-width="1.6" stroke-linecap="round" stroke-linejoin="round"/>
<path d="M6.04297 10.5127V11.7194" stroke="#A0A3BD" stroke-width="1.6" stroke-linecap="round" stroke-linejoin="round"/>
</svg>
