<svg width="32" height="32" viewBox="0 0 32 32" fill="none" xmlns="http://www.w3.org/2000/svg">
<g clip-path="url(#clip0_879_12219)">
<path d="M20 10.6667H20.0133" stroke="#0058FF" stroke-width="2" stroke-linecap="round" stroke-linejoin="round"/>
<path d="M22.6668 5.33325H9.3335C7.12436 5.33325 5.3335 7.12411 5.3335 9.33325V22.6666C5.3335 24.8757 7.12436 26.6666 9.3335 26.6666H22.6668C24.876 26.6666 26.6668 24.8757 26.6668 22.6666V9.33325C26.6668 7.12411 24.876 5.33325 22.6668 5.33325Z" stroke="#0058FF" stroke-width="2" stroke-linecap="round" stroke-linejoin="round"/>
<path d="M5.3335 19.9999L10.6668 14.6666C11.2749 14.0815 11.9647 13.7734 12.6668 13.7734C13.369 13.7734 14.0588 14.0815 14.6668 14.6666L21.3335 21.3333" stroke="#0058FF" stroke-width="2" stroke-linecap="round" stroke-linejoin="round"/>
<path d="M18.6665 18.6667L19.9998 17.3334C20.6079 16.7482 21.2977 16.4402 21.9998 16.4402C22.702 16.4402 23.3918 16.7482 23.9998 17.3334L26.6665 20" stroke="#0058FF" stroke-width="2" stroke-linecap="round" stroke-linejoin="round"/>
</g>
<defs>
<clipPath id="clip0_879_12219">
<rect width="32" height="32" fill="white"/>
</clipPath>
</defs>
</svg>
