<svg width="17" height="17" viewBox="0 0 17 17" fill="none" xmlns="http://www.w3.org/2000/svg">
<g clip-path="url(#clip0_879_9107)">
<path d="M6.99756 9.03953C7.28386 9.42228 7.64913 9.73898 8.06859 9.96815C8.48805 10.1973 8.9519 10.3336 9.42866 10.3677C9.90542 10.4019 10.384 10.3331 10.8318 10.166C11.2796 9.99899 11.6863 9.73757 12.0242 9.39953L14.0242 7.39953C14.6314 6.77085 14.9674 5.92885 14.9598 5.05486C14.9522 4.18087 14.6016 3.34483 13.9836 2.7268C13.3656 2.10877 12.5296 1.75821 11.6556 1.75061C10.7816 1.74302 9.93957 2.079 9.31089 2.68619L8.16423 3.82619" stroke="#181818" stroke-width="2" stroke-linecap="round" stroke-linejoin="round"/>
<path d="M9.66452 7.70637C9.37822 7.32362 9.01295 7.00691 8.59349 6.77774C8.17402 6.54857 7.71018 6.41229 7.23342 6.37815C6.75666 6.344 6.27813 6.41279 5.83029 6.57985C5.38245 6.7469 4.97578 7.00832 4.63785 7.34637L2.63785 9.34637C2.03066 9.97504 1.69468 10.817 1.70227 11.691C1.70987 12.565 2.06043 13.4011 2.67846 14.0191C3.29649 14.6371 4.13253 14.9877 5.00652 14.9953C5.88051 15.0029 6.72251 14.6669 7.35119 14.0597L8.49119 12.9197" stroke="#181818" stroke-width="2" stroke-linecap="round" stroke-linejoin="round"/>
</g>
<defs>
<clipPath id="clip0_879_9107">
<rect width="16" height="16" fill="white" transform="translate(0.331055 0.373047)"/>
</clipPath>
</defs>
</svg>
