<svg width="24" height="15" viewBox="0 0 24 15" fill="none" xmlns="http://www.w3.org/2000/svg">
<g clip-path="url(#clip0_879_13311)">
<path d="M7.75 6.85543C7.336 6.85543 7 6.65482 7 6.40765C7 4.65235 9.243 3.22363 12 3.22363C12.414 3.22363 12.75 3.42424 12.75 3.67141C12.75 3.91859 12.414 4.11919 12 4.11919C10.07 4.11919 8.5 5.1461 8.5 6.40765C8.5 6.65482 8.164 6.85543 7.75 6.85543Z" fill="#666666"/>
<path d="M20.75 6.40778C20.75 3.41661 16.825 0.984863 12 0.984863C7.175 0.984863 3.25 3.41721 3.25 6.40778C3.25 9.15715 6.57 11.4301 10.855 11.7793L9.155 12.8719C9.018 12.9585 8.982 13.0851 9.062 13.1943C9.142 13.303 9.322 13.3734 9.522 13.3734H14.479C14.677 13.3734 14.857 13.303 14.936 13.1943C15.016 13.0851 14.98 12.9585 14.844 12.8719L13.144 11.7793C17.429 11.4301 20.749 9.15715 20.749 6.40778H20.75ZM12 10.9357C8.002 10.9357 4.75 8.9046 4.75 6.40778C4.75 3.91096 8.002 1.88042 12 1.88042C15.998 1.88042 19.25 3.91036 19.25 6.40778C19.25 8.9052 15.998 10.9357 12 10.9357Z" fill="#666666"/>
</g>
<defs>
<clipPath id="clip0_879_13311">
<rect width="24" height="14.329" fill="white" transform="translate(0 0.23877)"/>
</clipPath>
</defs>
</svg>
