<svg width="17" height="17" viewBox="0 0 17 17" fill="none" xmlns="http://www.w3.org/2000/svg">
<g clip-path="url(#clip0_880_10209)">
<path d="M8.57861 10.1519C9.68318 10.1519 10.5786 9.25643 10.5786 8.15186C10.5786 7.04729 9.68318 6.15186 8.57861 6.15186C7.47404 6.15186 6.57861 7.04729 6.57861 8.15186C6.57861 9.25643 7.47404 10.1519 8.57861 10.1519Z" stroke="#0058FF" stroke-linecap="round" stroke-linejoin="round"/>
<path d="M13.5118 10.1517C13.423 10.3528 13.3966 10.5758 13.4358 10.7921C13.475 11.0083 13.5781 11.2079 13.7318 11.365L13.7718 11.405C13.8958 11.5289 13.9941 11.6759 14.0612 11.8378C14.1283 11.9996 14.1628 12.1731 14.1628 12.3484C14.1628 12.5236 14.1283 12.6971 14.0612 12.8589C13.9941 13.0208 13.8958 13.1679 13.7718 13.2917C13.648 13.4157 13.5009 13.514 13.339 13.5811C13.1772 13.6482 13.0037 13.6827 12.8284 13.6827C12.6532 13.6827 12.4797 13.6482 12.3179 13.5811C12.156 13.514 12.0089 13.4157 11.8851 13.2917L11.8451 13.2517C11.688 13.098 11.4884 12.9949 11.2722 12.9557C11.0559 12.9165 10.8329 12.9429 10.6318 13.0317C10.4346 13.1162 10.2664 13.2565 10.148 13.4354C10.0295 13.6142 9.96597 13.8238 9.96512 14.0384V14.1517C9.96512 14.5053 9.82464 14.8445 9.57459 15.0945C9.32454 15.3445 8.98541 15.485 8.63178 15.485C8.27816 15.485 7.93902 15.3445 7.68897 15.0945C7.43893 14.8445 7.29845 14.5053 7.29845 14.1517V14.0917C7.29329 13.871 7.22186 13.657 7.09346 13.4775C6.96505 13.298 6.78561 13.1612 6.57845 13.085C6.37737 12.9963 6.15432 12.9698 5.93806 13.009C5.72179 13.0482 5.52224 13.1513 5.36512 13.305L5.32512 13.345C5.20129 13.469 5.05423 13.5673 4.89237 13.6344C4.73051 13.7015 4.557 13.7361 4.38178 13.7361C4.20656 13.7361 4.03306 13.7015 3.8712 13.6344C3.70933 13.5673 3.56228 13.469 3.43845 13.345C3.31448 13.2212 3.21614 13.0741 3.14904 12.9123C3.08194 12.7504 3.0474 12.5769 3.0474 12.4017C3.0474 12.2265 3.08194 12.053 3.14904 11.8911C3.21614 11.7292 3.31448 11.5822 3.43845 11.4584L3.47845 11.4184C3.63214 11.2612 3.73524 11.0617 3.77445 10.8454C3.81367 10.6292 3.78719 10.4061 3.69845 10.205C3.61394 10.0078 3.47362 9.83968 3.29476 9.72123C3.1159 9.60278 2.90631 9.53921 2.69178 9.53836H2.57845C2.22483 9.53836 1.88569 9.39788 1.63564 9.14783C1.38559 8.89779 1.24512 8.55865 1.24512 8.20503C1.24512 7.8514 1.38559 7.51227 1.63564 7.26222C1.88569 7.01217 2.22483 6.87169 2.57845 6.87169H2.63845C2.85911 6.86653 3.07312 6.7951 3.25265 6.6667C3.43218 6.53829 3.56893 6.35885 3.64512 6.15169C3.73386 5.95062 3.76033 5.72756 3.72112 5.5113C3.68191 5.29504 3.57881 5.09548 3.42512 4.93836L3.38512 4.89836C3.26115 4.77453 3.1628 4.62748 3.0957 4.46561C3.02861 4.30375 2.99407 4.13025 2.99407 3.95503C2.99407 3.77981 3.02861 3.6063 3.0957 3.44444C3.1628 3.28257 3.26115 3.13552 3.38512 3.01169C3.50895 2.88772 3.656 2.78938 3.81786 2.72228C3.97973 2.65518 4.15323 2.62064 4.32845 2.62064C4.50367 2.62064 4.67717 2.65518 4.83904 2.72228C5.0009 2.78938 5.14795 2.88772 5.27178 3.01169L5.31178 3.05169C5.4689 3.20538 5.66846 3.30848 5.88472 3.3477C6.10099 3.38691 6.32404 3.36044 6.52512 3.27169H6.57845C6.77563 3.18718 6.94379 3.04686 7.06225 2.868C7.1807 2.68914 7.24426 2.47955 7.24512 2.26503V2.15169C7.24512 1.79807 7.38559 1.45893 7.63564 1.20888C7.88569 0.958835 8.22483 0.818359 8.57845 0.818359C8.93207 0.818359 9.27121 0.958835 9.52126 1.20888C9.77131 1.45893 9.91178 1.79807 9.91178 2.15169V2.21169C9.91264 2.42622 9.9762 2.63581 10.0947 2.81467C10.2131 2.99353 10.3813 3.13385 10.5784 3.21836C10.7795 3.3071 11.0026 3.33357 11.2188 3.29436C11.4351 3.25515 11.6347 3.15205 11.7918 2.99836L11.8318 2.95836C11.9556 2.83439 12.1027 2.73605 12.2645 2.66895C12.4264 2.60185 12.5999 2.56731 12.7751 2.56731C12.9503 2.56731 13.1238 2.60185 13.2857 2.66895C13.4476 2.73605 13.5946 2.83439 13.7184 2.95836C13.8424 3.08219 13.9408 3.22924 14.0079 3.39111C14.075 3.55297 14.1095 3.72647 14.1095 3.90169C14.1095 4.07691 14.075 4.25042 14.0079 4.41228C13.9408 4.57414 13.8424 4.7212 13.7184 4.84503L13.6784 4.88503C13.5248 5.04215 13.4217 5.2417 13.3824 5.45797C13.3432 5.67423 13.3697 5.89728 13.4584 6.09836V6.15169C13.543 6.34887 13.6833 6.51704 13.8621 6.63549C14.041 6.75394 14.2506 6.8175 14.4651 6.81836H14.5784C14.9321 6.81836 15.2712 6.95884 15.5213 7.20888C15.7713 7.45893 15.9118 7.79807 15.9118 8.15169C15.9118 8.50531 15.7713 8.84445 15.5213 9.0945C15.2712 9.34455 14.9321 9.48503 14.5784 9.48503H14.5184C14.3039 9.48588 14.0943 9.54945 13.9155 9.6679C13.7366 9.78635 13.5963 9.95451 13.5118 10.1517V10.1517Z" stroke="#0058FF" stroke-linecap="round" stroke-linejoin="round"/>
</g>
<defs>
<clipPath id="clip0_880_10209">
<rect width="16" height="16" fill="white" transform="translate(0.578613 0.151855)"/>
</clipPath>
</defs>
</svg>
