<svg width="38" height="38" viewBox="0 0 38 38" fill="none" xmlns="http://www.w3.org/2000/svg">
<path d="M8.70784 8.70833L13.4578 13.4583M24.5412 24.5417L29.2912 29.2917M29.2912 8.70833L24.5412 13.4583M13.4578 24.5417L8.70784 29.2917M17.4162 6.33333C17.4162 6.75326 17.583 7.15599 17.8799 7.45292C18.1769 7.74985 18.5796 7.91667 18.9995 7.91667C19.4194 7.91667 19.8222 7.74985 20.1191 7.45292C20.416 7.15599 20.5828 6.75326 20.5828 6.33333C20.5828 5.91341 20.416 5.51068 20.1191 5.21375C19.8222 4.91681 19.4194 4.75 18.9995 4.75C18.5796 4.75 18.1769 4.91681 17.8799 5.21375C17.583 5.51068 17.4162 5.91341 17.4162 6.33333ZM4.74951 19C4.74951 19.4199 4.91633 19.8227 5.21326 20.1196C5.51019 20.4165 5.91292 20.5833 6.33284 20.5833C6.75277 20.5833 7.1555 20.4165 7.45243 20.1196C7.74936 19.8227 7.91618 19.4199 7.91618 19C7.91618 18.5801 7.74936 18.1773 7.45243 17.8804C7.1555 17.5835 6.75277 17.4167 6.33284 17.4167C5.91292 17.4167 5.51019 17.5835 5.21326 17.8804C4.91633 18.1773 4.74951 18.5801 4.74951 19ZM30.0828 19C30.0828 19.4199 30.2497 19.8227 30.5466 20.1196C30.8435 20.4165 31.2463 20.5833 31.6662 20.5833C32.0861 20.5833 32.4888 20.4165 32.7858 20.1196C33.0827 19.8227 33.2495 19.4199 33.2495 19C33.2495 18.5801 33.0827 18.1773 32.7858 17.8804C32.4888 17.5835 32.0861 17.4167 31.6662 17.4167C31.2463 17.4167 30.8435 17.5835 30.5466 17.8804C30.2497 18.1773 30.0828 18.5801 30.0828 19ZM17.4162 31.6667C17.4162 32.0866 17.583 32.4893 17.8799 32.7863C18.1769 33.0832 18.5796 33.25 18.9995 33.25C19.4194 33.25 19.8222 33.0832 20.1191 32.7863C20.416 32.4893 20.5828 32.0866 20.5828 31.6667C20.5828 31.2467 20.416 30.844 20.1191 30.5471C19.8222 30.2501 19.4194 30.0833 18.9995 30.0833C18.5796 30.0833 18.1769 30.2501 17.8799 30.5471C17.583 30.844 17.4162 31.2467 17.4162 31.6667Z" stroke="black" stroke-width="3.16667" stroke-linecap="round" stroke-linejoin="round"/>
</svg>
