<svg width="46" height="46" viewBox="0 0 46 46" fill="none" xmlns="http://www.w3.org/2000/svg">
<path d="M10.448 10.4485L16.1471 16.1476M29.4451 29.4456L35.1442 35.1447M35.1442 10.4485L29.4451 16.1476M16.1471 29.4456L10.448 35.1447M20.8964 7.59893C20.8964 8.10276 21.0965 8.58596 21.4528 8.94222C21.8091 9.29848 22.2923 9.49863 22.7961 9.49863C23.2999 9.49863 23.7831 9.29848 24.1394 8.94222C24.4957 8.58596 24.6958 8.10276 24.6958 7.59893C24.6958 7.09509 24.4957 6.61189 24.1394 6.25563C23.7831 5.89937 23.2999 5.69922 22.7961 5.69922C22.2923 5.69922 21.8091 5.89937 21.4528 6.25563C21.0965 6.61189 20.8964 7.09509 20.8964 7.59893ZM5.69873 22.7966C5.69873 23.3004 5.89888 23.7836 6.25514 24.1399C6.61141 24.4961 7.0946 24.6963 7.59844 24.6963C8.10227 24.6963 8.58547 24.4961 8.94173 24.1399C9.298 23.7836 9.49814 23.3004 9.49814 22.7966C9.49814 22.2927 9.298 21.8095 8.94173 21.4533C8.58547 21.097 8.10227 20.8969 7.59844 20.8969C7.0946 20.8969 6.61141 21.097 6.25514 21.4533C5.89888 21.8095 5.69873 22.2927 5.69873 22.7966ZM36.094 22.7966C36.094 23.3004 36.2942 23.7836 36.6504 24.1399C37.0067 24.4961 37.4899 24.6963 37.9937 24.6963C38.4976 24.6963 38.9808 24.4961 39.337 24.1399C39.6933 23.7836 39.8935 23.3004 39.8935 22.7966C39.8935 22.2927 39.6933 21.8095 39.337 21.4533C38.9808 21.097 38.4976 20.8969 37.9937 20.8969C37.4899 20.8969 37.0067 21.097 36.6504 21.4533C36.2942 21.8095 36.094 22.2927 36.094 22.7966ZM20.8964 37.9942C20.8964 38.4981 21.0965 38.9813 21.4528 39.3375C21.8091 39.6938 22.2923 39.8939 22.7961 39.8939C23.2999 39.8939 23.7831 39.6938 24.1394 39.3375C24.4957 38.9813 24.6958 38.4981 24.6958 37.9942C24.6958 37.4904 24.4957 37.0072 24.1394 36.6509C23.7831 36.2947 23.2999 36.0945 22.7961 36.0945C22.2923 36.0945 21.8091 36.2947 21.4528 36.6509C21.0965 37.0072 20.8964 37.4904 20.8964 37.9942Z" stroke="black" stroke-width="3.79941" stroke-linecap="round" stroke-linejoin="round"/>
</svg>
