<svg width="46" height="47" viewBox="0 0 46 47" fill="none" xmlns="http://www.w3.org/2000/svg">
<path d="M10.4608 10.9685L16.1599 16.6676M29.4578 29.9656L35.1569 35.6647M35.1569 10.9685L29.4578 16.6676M16.1599 29.9656L10.4608 35.6647M20.9091 8.11895C20.9091 8.62278 21.1093 9.10598 21.4656 9.46224C21.8218 9.8185 22.305 10.0187 22.8088 10.0187C23.3127 10.0187 23.7959 9.8185 24.1521 9.46224C24.5084 9.10598 24.7086 8.62278 24.7086 8.11895C24.7086 7.61511 24.5084 7.13191 24.1521 6.77565C23.7959 6.41939 23.3127 6.21924 22.8088 6.21924C22.305 6.21924 21.8218 6.41939 21.4656 6.77565C21.1093 7.13191 20.9091 7.61511 20.9091 8.11895ZM5.71149 23.3166C5.71149 23.8204 5.91163 24.3036 6.2679 24.6599C6.62416 25.0162 7.10736 25.2163 7.61119 25.2163C8.11503 25.2163 8.59822 25.0162 8.95449 24.6599C9.31075 24.3036 9.5109 23.8204 9.5109 23.3166C9.5109 22.8128 9.31075 22.3296 8.95449 21.9733C8.59822 21.617 8.11503 21.4169 7.61119 21.4169C7.10736 21.4169 6.62416 21.617 6.2679 21.9733C5.91163 22.3296 5.71149 22.8128 5.71149 23.3166ZM36.1068 23.3166C36.1068 23.8204 36.3069 24.3036 36.6632 24.6599C37.0195 25.0162 37.5027 25.2163 38.0065 25.2163C38.5103 25.2163 38.9935 25.0162 39.3498 24.6599C39.7061 24.3036 39.9062 23.8204 39.9062 23.3166C39.9062 22.8128 39.7061 22.3296 39.3498 21.9733C38.9935 21.617 38.5103 21.4169 38.0065 21.4169C37.5027 21.4169 37.0195 21.617 36.6632 21.9733C36.3069 22.3296 36.1068 22.8128 36.1068 23.3166ZM20.9091 38.5143C20.9091 39.0181 21.1093 39.5013 21.4656 39.8575C21.8218 40.2138 22.305 40.414 22.8088 40.414C23.3127 40.414 23.7959 40.2138 24.1521 39.8575C24.5084 39.5013 24.7086 39.0181 24.7086 38.5143C24.7086 38.0104 24.5084 37.5272 24.1521 37.171C23.7959 36.8147 23.3127 36.6145 22.8088 36.6145C22.305 36.6145 21.8218 36.8147 21.4656 37.171C21.1093 37.5272 20.9091 38.0104 20.9091 38.5143Z" stroke="black" stroke-width="3.79941" stroke-linecap="round" stroke-linejoin="round"/>
</svg>
