<svg width="16" height="16" viewBox="0 0 16 16" fill="none" xmlns="http://www.w3.org/2000/svg">
<path d="M9.33325 5.99992V3.33325C9.33325 2.80282 9.12254 2.29411 8.74747 1.91904C8.37239 1.54397 7.86369 1.33325 7.33325 1.33325L4.66659 7.33325V14.6666H12.1866C12.5081 14.6702 12.8202 14.5575 13.0652 14.3493C13.3102 14.141 13.4717 13.8512 13.5199 13.5333L14.4399 7.53325C14.4689 7.34216 14.456 7.14704 14.4021 6.96142C14.3483 6.7758 14.2547 6.60412 14.1278 6.45826C14.001 6.31241 13.844 6.19587 13.6676 6.11673C13.4913 6.03759 13.2999 5.99773 13.1066 5.99992H9.33325ZM4.66659 14.6666H2.66659C2.31296 14.6666 1.97382 14.5261 1.72378 14.2761C1.47373 14.026 1.33325 13.6869 1.33325 13.3333V8.66659C1.33325 8.31296 1.47373 7.97383 1.72378 7.72378C1.97382 7.47373 2.31296 7.33325 2.66659 7.33325H4.66659" fill="#0058FF"/>
</svg>
