<svg width="16" height="17" viewBox="0 0 16 17" fill="none" xmlns="http://www.w3.org/2000/svg">
<g clip-path="url(#clip0_879_9123)">
<path d="M11.3332 14.2686V12.9352C11.3332 12.228 11.0522 11.5497 10.5521 11.0496C10.052 10.5495 9.37375 10.2686 8.6665 10.2686H3.33317C2.62593 10.2686 1.94765 10.5495 1.44755 11.0496C0.947456 11.5497 0.666504 12.228 0.666504 12.9352V14.2686" stroke="#181818" stroke-width="2" stroke-linecap="round" stroke-linejoin="round"/>
<path d="M6.00016 7.60189C7.47292 7.60189 8.66683 6.40798 8.66683 4.93522C8.66683 3.46246 7.47292 2.26855 6.00016 2.26855C4.5274 2.26855 3.3335 3.46246 3.3335 4.93522C3.3335 6.40798 4.5274 7.60189 6.00016 7.60189Z" stroke="#181818" stroke-width="2" stroke-linecap="round" stroke-linejoin="round"/>
<path d="M15.3335 14.2688V12.9355C15.3331 12.3446 15.1364 11.7707 14.7744 11.3037C14.4124 10.8367 13.9056 10.5032 13.3335 10.3555" stroke="#181818" stroke-width="2" stroke-linecap="round" stroke-linejoin="round"/>
<path d="M10.6665 2.35547C11.2401 2.50234 11.7485 2.83594 12.1116 3.30368C12.4747 3.77142 12.6717 4.34669 12.6717 4.9388C12.6717 5.53092 12.4747 6.10619 12.1116 6.57393C11.7485 7.04167 11.2401 7.37527 10.6665 7.52214" stroke="#181818" stroke-width="2" stroke-linecap="round" stroke-linejoin="round"/>
</g>
<defs>
<clipPath id="clip0_879_9123">
<rect width="16" height="16" fill="white" transform="translate(0 0.268555)"/>
</clipPath>
</defs>
</svg>
