<svg width="18" height="28" viewBox="0 0 18 28" fill="none" xmlns="http://www.w3.org/2000/svg">
<path fill-rule="evenodd" clip-rule="evenodd" d="M0 3.5276C0 1.77029 0.921165 0.345703 2.05749 0.345703C2.60318 0.345703 3.1265 0.68094 3.51236 1.27766C3.8982 1.87438 4.11498 2.68371 4.11498 3.5276C4.11498 5.28492 3.19381 6.70951 2.05749 6.70951C0.921165 6.70951 0 5.28492 0 3.5276ZM17.9994 16.9081C18.0349 13.4634 16.5153 10.445 14.3473 9.65332C12.8944 9.16952 11.3801 9.80394 10.2838 11.3557V10.6875C10.2838 10.2481 10.0535 9.89197 9.76943 9.89197H7.19753C6.91351 9.89197 6.68317 10.2481 6.68317 10.6875V26.597C6.68317 27.0362 6.91351 27.3923 7.19753 27.3923H9.76943C10.0535 27.3923 10.2838 27.0362 10.2838 26.597V17.624C10.2584 16.0262 10.9784 14.631 11.9915 14.3149C12.5947 14.1538 13.2129 14.4165 13.6783 15.0316C14.1436 15.6465 14.4077 16.5502 14.3988 17.4967V26.597C14.3988 27.0362 14.629 27.3923 14.9131 27.3923H17.485C17.7691 27.3923 17.9994 27.0362 17.9994 26.597V16.9081ZM4.11208 10.6892V26.5987C4.11208 27.038 3.88178 27.3942 3.59771 27.3942H1.02584C0.741761 27.3942 0.511467 27.038 0.511467 26.5987V10.6892C0.511467 10.2499 0.741761 9.89373 1.02584 9.89373H3.59771C3.88178 9.89373 4.11208 10.2499 4.11208 10.6892Z" fill="black"/>
</svg>
