<svg width="18" height="24" viewBox="0 0 18 24" fill="none" xmlns="http://www.w3.org/2000/svg">
<path d="M17.9737 3.4662C17.5093 4.42452 16.9478 5.26047 16.3112 5.94177C16.3112 6.1921 16.3112 6.44245 16.3112 6.70668C16.3163 11.2527 15.1424 15.6119 13.0526 18.8068C10.9629 22.0017 8.13207 23.7652 5.1949 23.7019C3.49685 23.7107 1.82053 23.1108 0.297268 21.9495C0.215132 21.8941 0.162156 21.7682 0.162471 21.6295V21.4767C0.162471 21.277 0.267085 21.115 0.396122 21.115C2.06528 21.03 3.67488 20.1346 4.99721 18.5559C3.48639 18.509 2.12704 17.1245 1.50146 14.9957C1.46986 14.8794 1.4797 14.746 1.52742 14.6438C1.57515 14.5414 1.65385 14.4851 1.73511 14.495C2.19428 14.5663 2.65804 14.5002 3.10105 14.3002C1.43324 13.7648 0.180066 11.623 0.00071825 9.00151C-0.00566051 8.87563 0.0307785 8.75389 0.0968498 8.68003C0.162921 8.60617 0.249096 8.59096 0.324235 8.63985C0.771794 8.9454 1.25495 9.10617 1.7441 9.11266C0.2827 7.62896 -0.348538 4.80681 0.207404 2.24233C0.26479 1.99314 0.402659 1.80904 0.570351 1.75771C0.738033 1.70638 0.910811 1.79537 1.02518 1.99198C2.99725 5.23871 5.70689 7.1734 8.58286 7.38816C8.50917 6.93345 8.47294 6.46617 8.47497 5.9974C8.50186 3.53939 9.48499 1.34976 10.9643 0.453588C12.4434 -0.442564 14.1258 0.132097 15.2239 1.90855C15.9723 1.68797 16.6959 1.29907 17.3716 0.754216C17.4211 0.706408 17.4839 0.706408 17.5334 0.754216C17.5642 0.83081 17.5642 0.927952 17.5334 1.00455C17.2061 2.1639 16.6532 3.13628 15.9517 3.78608C16.566 3.67589 17.1694 3.45177 17.749 3.11852C17.7979 3.06713 17.862 3.06713 17.9108 3.11852C17.9516 3.14744 17.9822 3.20279 17.9944 3.26978C18.0064 3.33676 17.9989 3.40863 17.9737 3.4662Z" fill="black"/>
</svg>
